<svg width="12" height="12" viewBox="0 0 12 12" fill="none" xmlns="http://www.w3.org/2000/svg">
<g clip-path="url(#clip0_262_1285)">
<path d="M10.75 2H9.66668V2.66667H10.6667V10H1.33335V2.66667H2.33335V2H1.25001C1.17209 2.0013 1.09519 2.01794 1.0237 2.04897C0.952214 2.08 0.887538 2.1248 0.833368 2.18083C0.779199 2.23686 0.736597 2.30301 0.707996 2.3755C0.679396 2.44799 0.665357 2.52541 0.666681 2.60333V10.0633C0.665357 10.1413 0.679396 10.2187 0.707996 10.2912C0.736597 10.3637 0.779199 10.4298 0.833368 10.4858C0.887538 10.5419 0.952214 10.5867 1.0237 10.6177C1.09519 10.6487 1.17209 10.6654 1.25001 10.6667H10.75C10.8279 10.6654 10.9048 10.6487 10.9763 10.6177C11.0478 10.5867 11.1125 10.5419 11.1667 10.4858C11.2208 10.4298 11.2634 10.3637 11.292 10.2912C11.3206 10.2187 11.3347 10.1413 11.3333 10.0633V2.60333C11.3347 2.52541 11.3206 2.44799 11.292 2.3755C11.2634 2.30301 11.2208 2.23686 11.1667 2.18083C11.1125 2.1248 11.0478 2.08 10.9763 2.04897C10.9048 2.01794 10.8279 2.0013 10.75 2Z" fill="#494BF4" fill-opacity="0.5"/>
<path d="M2.66666 4.66663H3.33332V5.33329H2.66666V4.66663Z" fill="#494BF4" fill-opacity="0.5"/>
<path d="M4.66666 4.66663H5.33332V5.33329H4.66666V4.66663Z" fill="#494BF4" fill-opacity="0.5"/>
<path d="M6.66666 4.66663H7.33332V5.33329H6.66666V4.66663Z" fill="#494BF4" fill-opacity="0.5"/>
<path d="M8.66666 4.66663H9.33332V5.33329H8.66666V4.66663Z" fill="#494BF4" fill-opacity="0.5"/>
<path d="M2.66666 6.33337H3.33332V7.00004H2.66666V6.33337Z" fill="#494BF4" fill-opacity="0.5"/>
<path d="M4.66666 6.33337H5.33332V7.00004H4.66666V6.33337Z" fill="#494BF4" fill-opacity="0.5"/>
<path d="M6.66666 6.33337H7.33332V7.00004H6.66666V6.33337Z" fill="#494BF4" fill-opacity="0.5"/>
<path d="M8.66666 6.33337H9.33332V7.00004H8.66666V6.33337Z" fill="#494BF4" fill-opacity="0.5"/>
<path d="M2.66666 8H3.33332V8.66667H2.66666V8Z" fill="#494BF4" fill-opacity="0.5"/>
<path d="M4.66666 8H5.33332V8.66667H4.66666V8Z" fill="#494BF4" fill-opacity="0.5"/>
<path d="M6.66666 8H7.33332V8.66667H6.66666V8Z" fill="#494BF4" fill-opacity="0.5"/>
<path d="M8.66666 8H9.33332V8.66667H8.66666V8Z" fill="#494BF4" fill-opacity="0.5"/>
<path d="M3.33333 3.33329C3.42174 3.33329 3.50652 3.29817 3.56904 3.23566C3.63155 3.17315 3.66667 3.08837 3.66667 2.99996V0.999959C3.66667 0.911554 3.63155 0.826769 3.56904 0.764257C3.50652 0.701745 3.42174 0.666626 3.33333 0.666626C3.24493 0.666626 3.16014 0.701745 3.09763 0.764257C3.03512 0.826769 3 0.911554 3 0.999959V2.99996C3 3.08837 3.03512 3.17315 3.09763 3.23566C3.16014 3.29817 3.24493 3.33329 3.33333 3.33329Z" fill="#494BF4" fill-opacity="0.5"/>
<path d="M8.66668 3.33329C8.75508 3.33329 8.83987 3.29817 8.90238 3.23566C8.96489 3.17315 9.00001 3.08837 9.00001 2.99996V0.999959C9.00001 0.911554 8.96489 0.826769 8.90238 0.764257C8.83987 0.701745 8.75508 0.666626 8.66668 0.666626C8.57827 0.666626 8.49349 0.701745 8.43097 0.764257C8.36846 0.826769 8.33334 0.911554 8.33334 0.999959V2.99996C8.33334 3.08837 8.36846 3.17315 8.43097 3.23566C8.49349 3.29817 8.57827 3.33329 8.66668 3.33329Z" fill="#494BF4" fill-opacity="0.5"/>
<path d="M4.33334 2H7.66668V2.66667H4.33334V2Z" fill="#494BF4" fill-opacity="0.5"/>
</g>
<defs>
<clipPath id="clip0_262_1285">
<rect width="12" height="12" fill="white"/>
</clipPath>
</defs>
</svg>
