<svg width="30" height="30" viewBox="0 0 30 30" fill="none" xmlns="http://www.w3.org/2000/svg">
<path fill-rule="evenodd" clip-rule="evenodd" d="M23.5638 8.064C23.6707 7.95724 23.7555 7.83046 23.8134 7.69092C23.8713 7.55137 23.9012 7.40179 23.9013 7.25071C23.9014 7.09963 23.8717 6.95001 23.814 6.81039C23.7562 6.67078 23.6716 6.5439 23.5648 6.437C23.458 6.3301 23.3313 6.24528 23.1917 6.18738C23.0522 6.12948 22.9026 6.09963 22.7515 6.09954C22.6004 6.09945 22.4508 6.12911 22.3112 6.18684C22.1716 6.24457 22.0447 6.32924 21.9378 6.436L14.9998 13.374L8.0638 6.436C7.84792 6.22011 7.55511 6.09883 7.2498 6.09883C6.94449 6.09883 6.65169 6.22011 6.4358 6.436C6.21992 6.65189 6.09863 6.94469 6.09863 7.25C6.09863 7.55531 6.21992 7.84811 6.4358 8.064L13.3738 15L6.4358 21.936C6.32891 22.0429 6.24411 22.1698 6.18626 22.3095C6.12841 22.4491 6.09863 22.5988 6.09863 22.75C6.09863 22.9012 6.12841 23.0509 6.18626 23.1905C6.24411 23.3302 6.32891 23.4571 6.4358 23.564C6.65169 23.7799 6.94449 23.9012 7.2498 23.9012C7.40098 23.9012 7.55067 23.8714 7.69034 23.8135C7.83 23.7557 7.95691 23.6709 8.0638 23.564L14.9998 16.626L21.9378 23.564C22.1537 23.7796 22.4464 23.9007 22.7515 23.9005C23.0566 23.9003 23.3492 23.7789 23.5648 23.563C23.7804 23.3471 23.9015 23.0544 23.9013 22.7493C23.9011 22.4442 23.7797 22.1516 23.5638 21.936L16.6258 15L23.5638 8.064Z" fill="#1E1F21" fill-opacity="0.8"/>
</svg>
