<svg width="14" height="4" viewBox="0 0 14 4" fill="none" xmlns="http://www.w3.org/2000/svg">
<path d="M2 0.75C2.33152 0.75 2.64946 0.881696 2.88388 1.11612C3.1183 1.35054 3.25 1.66848 3.25 2C3.25 2.33152 3.1183 2.64946 2.88388 2.88388C2.64946 3.1183 2.33152 3.25 2 3.25C1.66848 3.25 1.35054 3.1183 1.11612 2.88388C0.881696 2.64946 0.75 2.33152 0.75 2C0.75 1.66848 0.881696 1.35054 1.11612 1.11612C1.35054 0.881696 1.66848 0.75 2 0.75ZM7 0.75C7.33152 0.75 7.64946 0.881696 7.88388 1.11612C8.1183 1.35054 8.25 1.66848 8.25 2C8.25 2.33152 8.1183 2.64946 7.88388 2.88388C7.64946 3.1183 7.33152 3.25 7 3.25C6.66848 3.25 6.35054 3.1183 6.11612 2.88388C5.8817 2.64946 5.75 2.33152 5.75 2C5.75 1.66848 5.8817 1.35054 6.11612 1.11612C6.35054 0.881696 6.66848 0.75 7 0.75ZM12 0.75C12.3315 0.75 12.6495 0.881696 12.8839 1.11612C13.1183 1.35054 13.25 1.66848 13.25 2C13.25 2.33152 13.1183 2.64946 12.8839 2.88388C12.6495 3.1183 12.3315 3.25 12 3.25C11.6685 3.25 11.3505 3.1183 11.1161 2.88388C10.8817 2.64946 10.75 2.33152 10.75 2C10.75 1.66848 10.8817 1.35054 11.1161 1.11612C11.3505 0.881696 11.6685 0.75 12 0.75Z" fill="black"/>
</svg>
