<svg width="32" height="32" viewBox="0 0 32 32" fill="none" xmlns="http://www.w3.org/2000/svg">
<path d="M13.3334 24V20C13.3334 19.2928 13.6144 18.6145 14.1145 18.1144C14.6146 17.6143 15.2928 17.3333 16.0001 17.3333C16.7073 17.3333 17.3856 17.6143 17.8857 18.1144C18.3858 18.6145 18.6667 19.2928 18.6667 20V24M2.66675 10.6667L15.6427 4.17866C15.7537 4.12326 15.876 4.09442 16.0001 4.09442C16.1241 4.09442 16.2464 4.12326 16.3574 4.17866L29.3334 10.6667" stroke="black" stroke-width="1.5" stroke-linecap="round" stroke-linejoin="round"/>
<path d="M26.6668 14.6667V25.3333C26.6668 26.0406 26.3859 26.7188 25.8858 27.2189C25.3857 27.719 24.7074 28 24.0002 28H8.00016C7.29292 28 6.61464 27.719 6.11454 27.2189C5.61445 26.7188 5.3335 26.0406 5.3335 25.3333V14.6667" stroke="black" stroke-width="1.5" stroke-linecap="round" stroke-linejoin="round"/>
</svg>
