<svg width="64" height="51" viewBox="0 0 64 51" fill="none" xmlns="http://www.w3.org/2000/svg">
<path d="M56.6631 50.6667H7.39084C3.30287 50.6667 0 47.0659 0 42.6479V8.01882C0 3.60081 3.30287 0 7.36377 0H56.6361C60.724 0 63.9998 3.60081 63.9998 8.01882V42.6479C64.0269 47.0659 60.724 50.6667 56.6631 50.6667Z" fill="#494BF4"/>
<path d="M44.6429 19.5874H35.7901V10.3427H54.4432C54.4432 15.4503 50.0303 19.5874 44.6429 19.5874Z" fill="#F5F5F7"/>
<path d="M35.7901 19.5874H19.357C13.9424 19.5874 9.55664 15.4503 9.55664 10.3427H25.9898C31.4043 10.3427 35.7901 14.4798 35.7901 19.5874Z" fill="#F5F5F7"/>
<path d="M35.7901 19.5874C29.7258 19.5874 24.7986 24.2097 24.7986 29.9557C24.7986 35.7016 29.6987 40.3239 35.7901 40.3239V19.5874Z" fill="#F5F5F7"/>
</svg>
