<svg width="32" height="32" viewBox="0 0 32 32" fill="none" xmlns="http://www.w3.org/2000/svg">
<path d="M9.66675 8C9.40153 8 9.14718 8.10536 8.95964 8.29289C8.7721 8.48043 8.66675 8.73478 8.66675 9V19C8.66675 19.2652 8.7721 19.5196 8.95964 19.7071C9.14718 19.8946 9.40153 20 9.66675 20C9.93196 20 10.1863 19.8946 10.3739 19.7071C10.5614 19.5196 10.6667 19.2652 10.6667 19V9C10.6667 8.73478 10.5614 8.48043 10.3739 8.29289C10.1863 8.10536 9.93196 8 9.66675 8ZM16.0001 8C15.7349 8 15.4805 8.10536 15.293 8.29289C15.1054 8.48043 15.0001 8.73478 15.0001 9V15C15.0001 15.2652 15.1054 15.5196 15.293 15.7071C15.4805 15.8946 15.7349 16 16.0001 16C16.2653 16 16.5197 15.8946 16.7072 15.7071C16.8947 15.5196 17.0001 15.2652 17.0001 15V9C17.0001 8.73478 16.8947 8.48043 16.7072 8.29289C16.5197 8.10536 16.2653 8 16.0001 8ZM21.3334 9C21.3334 8.73478 21.4388 8.48043 21.6263 8.29289C21.8138 8.10536 22.0682 8 22.3334 8C22.5986 8 22.853 8.10536 23.0405 8.29289C23.2281 8.48043 23.3334 8.73478 23.3334 9V21.6667C23.3334 21.9319 23.2281 22.1862 23.0405 22.3738C22.853 22.5613 22.5986 22.6667 22.3334 22.6667C22.0682 22.6667 21.8138 22.5613 21.6263 22.3738C21.4388 22.1862 21.3334 21.9319 21.3334 21.6667V9Z" fill="black"/>
<path d="M5.00008 2.66666H27.0001C28.2881 2.66666 29.3334 3.71199 29.3334 4.99999V27C29.3334 27.6188 29.0876 28.2123 28.65 28.6499C28.2124 29.0875 27.6189 29.3333 27.0001 29.3333H5.00008C4.38124 29.3333 3.78775 29.0875 3.35017 28.6499C2.91258 28.2123 2.66675 27.6188 2.66675 27V4.99999C2.66675 3.71199 3.71208 2.66666 5.00008 2.66666ZM4.66675 4.99999V27C4.66675 27.184 4.81608 27.3333 5.00008 27.3333H27.0001C27.0885 27.3333 27.1733 27.2982 27.2358 27.2357C27.2983 27.1732 27.3334 27.0884 27.3334 27V4.99999C27.3334 4.91158 27.2983 4.8268 27.2358 4.76429C27.1733 4.70178 27.0885 4.66666 27.0001 4.66666H5.00008C4.91168 4.66666 4.82689 4.70178 4.76438 4.76429C4.70187 4.8268 4.66675 4.91158 4.66675 4.99999Z" fill="black"/>
</svg>
