<svg width="16" height="15" viewBox="0 0 16 15" fill="none" xmlns="http://www.w3.org/2000/svg">
<path d="M14.6923 5.134V2.566C14.6923 1.713 14.0154 1 13.1539 1H2.76924C1.9077 1 1.23078 1.713 1.23078 2.566V9.276C1.23078 10.129 1.9077 10.842 2.76924 10.842H4.3077V14H4.31059L4.31251 13.999L6.39616 12.399L6.09424 13.653C6.07405 13.739 6.05866 13.823 6.05001 13.908L4.88366 14.803C4.67897 14.9599 4.42322 15.027 4.17146 14.9898C3.9197 14.9526 3.69205 14.814 3.53751 14.604C3.41363 14.4343 3.34644 14.2271 3.34616 14.014V11.842H2.76924C1.38847 11.842 0.269241 10.693 0.269241 9.276V2.566C0.269241 1.149 1.38847 0 2.76924 0H13.1539C14.5346 0 15.6539 1.149 15.6539 2.566V5.69C15.3727 5.43904 15.0456 5.24991 14.6923 5.134ZM12.5837 6.546L7.93943 11.376C7.66911 11.6575 7.47735 12.01 7.38463 12.396L7.02405 13.894C6.98829 14.0431 6.99023 14.1992 7.02969 14.3472C7.06915 14.4953 7.14479 14.6302 7.24924 14.7388C7.35369 14.8474 7.4834 14.9261 7.62574 14.9671C7.76809 15.0082 7.91823 15.0102 8.06155 14.973L9.50193 14.598C9.87338 14.5018 10.2125 14.302 10.4827 14.02L15.1269 9.19C15.296 9.01682 15.4304 8.81054 15.5225 8.58307C15.6145 8.3556 15.6623 8.11143 15.6632 7.86465C15.6641 7.61786 15.618 7.37333 15.5276 7.14516C15.4371 6.91699 15.3042 6.70969 15.1363 6.53522C14.9685 6.36074 14.7691 6.22254 14.5497 6.12859C14.3303 6.03463 14.0951 5.98677 13.8578 5.98777C13.6205 5.98878 13.3858 6.03862 13.1671 6.13443C12.9484 6.23023 12.7501 6.37011 12.5837 6.546Z" fill="#494BF4" fill-opacity="0.5"/>
</svg>
