<svg width="36" height="35" viewBox="0 0 36 35" fill="none" xmlns="http://www.w3.org/2000/svg">
<path d="M17.8361 28.5417L9.19031 33.75C8.80837 33.9931 8.40906 34.0972 7.99239 34.0625C7.57573 34.0278 7.21114 33.8889 6.89864 33.6458C6.58614 33.4028 6.34309 33.0993 6.16948 32.7354C5.99587 32.3701 5.96114 31.9618 6.06531 31.5104L8.35698 21.6667L0.700729 15.0521C0.353506 14.7396 0.13684 14.3833 0.0507286 13.9833C-0.0367714 13.5847 -0.0110771 13.1944 0.127812 12.8125C0.266701 12.4306 0.475034 12.1181 0.752812 11.875C1.03059 11.6319 1.41253 11.4757 1.89864 11.4063L12.0028 10.5208L15.9091 1.25C16.0827 0.833334 16.3521 0.520834 16.7174 0.3125C17.0813 0.104167 17.4542 0 17.8361 0C18.2181 0 18.5917 0.104167 18.957 0.3125C19.3209 0.520834 19.5896 0.833334 19.7632 1.25L23.6695 10.5208L33.7736 11.4063C34.2598 11.4757 34.6417 11.6319 34.9195 11.875C35.1973 12.1181 35.4056 12.4306 35.5445 12.8125C35.6834 13.1944 35.7098 13.5847 35.6236 13.9833C35.5361 14.3833 35.3188 14.7396 34.9716 15.0521L27.3153 21.6667L29.607 31.5104C29.7111 31.9618 29.6764 32.3701 29.5028 32.7354C29.3292 33.0993 29.0861 33.4028 28.7736 33.6458C28.4611 33.8889 28.0966 34.0278 27.6799 34.0625C27.2632 34.0972 26.8639 33.9931 26.482 33.75L17.8361 28.5417Z" fill="#494BF4"/>
</svg>
