<svg width="32" height="32" viewBox="0 0 32 32" fill="none" xmlns="http://www.w3.org/2000/svg">
<path d="M16 4.80001C15.3634 4.80001 14.753 5.05287 14.3029 5.50296C13.8528 5.95304 13.6 6.56349 13.6 7.20001C13.6 7.83653 13.8528 8.44698 14.3029 8.89707C14.753 9.34716 15.3634 9.60001 16 9.60001C16.6365 9.60001 17.2469 9.34716 17.697 8.89707C18.1471 8.44698 18.4 7.83653 18.4 7.20001C18.4 6.56349 18.1471 5.95304 17.697 5.50296C17.2469 5.05287 16.6365 4.80001 16 4.80001ZM12 7.20001C12 6.13915 12.4214 5.12173 13.1715 4.37159C13.9217 3.62144 14.9391 3.20001 16 3.20001C17.0608 3.20001 18.0782 3.62144 18.8284 4.37159C19.5785 5.12173 20 6.13915 20 7.20001C20 8.26088 19.5785 9.27829 18.8284 10.0284C18.0782 10.7786 17.0608 11.2 16 11.2C14.9391 11.2 13.9217 10.7786 13.1715 10.0284C12.4214 9.27829 12 8.26088 12 7.20001ZM24.8 6.40001C24.3756 6.40001 23.9686 6.56858 23.6686 6.86864C23.3685 7.1687 23.2 7.57567 23.2 8.00001C23.2 8.42436 23.3685 8.83132 23.6686 9.13138C23.9686 9.43144 24.3756 9.60001 24.8 9.60001C25.2243 9.60001 25.6313 9.43144 25.9313 9.13138C26.2314 8.83132 26.4 8.42436 26.4 8.00001C26.4 7.57567 26.2314 7.1687 25.9313 6.86864C25.6313 6.56858 25.2243 6.40001 24.8 6.40001ZM21.6 8.00001C21.6 7.15132 21.9371 6.33739 22.5372 5.73727C23.1373 5.13715 23.9513 4.80001 24.8 4.80001C25.6486 4.80001 26.4626 5.13715 27.0627 5.73727C27.6628 6.33739 28 7.15132 28 8.00001C28 8.84871 27.6628 9.66264 27.0627 10.2628C26.4626 10.8629 25.6486 11.2 24.8 11.2C23.9513 11.2 23.1373 10.8629 22.5372 10.2628C21.9371 9.66264 21.6 8.84871 21.6 8.00001ZM5.59995 8.00001C5.59995 7.57567 5.76852 7.1687 6.06858 6.86864C6.36864 6.56858 6.7756 6.40001 7.19995 6.40001C7.6243 6.40001 8.03126 6.56858 8.33132 6.86864C8.63138 7.1687 8.79995 7.57567 8.79995 8.00001C8.79995 8.42436 8.63138 8.83132 8.33132 9.13138C8.03126 9.43144 7.6243 9.60001 7.19995 9.60001C6.7756 9.60001 6.36864 9.43144 6.06858 9.13138C5.76852 8.83132 5.59995 8.42436 5.59995 8.00001ZM7.19995 4.80001C6.35126 4.80001 5.53733 5.13715 4.93721 5.73727C4.33709 6.33739 3.99995 7.15132 3.99995 8.00001C3.99995 8.84871 4.33709 9.66264 4.93721 10.2628C5.53733 10.8629 6.35126 11.2 7.19995 11.2C8.04864 11.2 8.86258 10.8629 9.46269 10.2628C10.0628 9.66264 10.4 8.84871 10.4 8.00001C10.4 7.15132 10.0628 6.33739 9.46269 5.73727C8.86258 5.13715 8.04864 4.80001 7.19995 4.80001ZM8.15995 23.9968C7.72672 24.0185 7.29361 23.9519 6.88692 23.801C6.48024 23.6501 6.10847 23.4182 5.79421 23.1192C5.47995 22.8202 5.22976 22.4604 5.05884 22.0617C4.88792 21.663 4.79984 21.2338 4.79995 20.8V14.8C4.79995 14.6939 4.84209 14.5922 4.91711 14.5172C4.99212 14.4422 5.09386 14.4 5.19995 14.4H8.02235C8.08635 13.8128 8.29435 13.2672 8.60635 12.8H5.19995C4.09595 12.8 3.19995 13.696 3.19995 14.8V20.8C3.19988 21.485 3.34641 22.1621 3.62971 22.7857C3.91301 23.4094 4.32652 23.9652 4.84244 24.4158C5.35836 24.8664 5.96475 25.2013 6.62086 25.3982C7.27697 25.595 7.9676 25.6491 8.64635 25.5568C8.431 25.0549 8.26801 24.5322 8.15995 23.9968ZM23.3536 25.5568C24.0323 25.6491 24.7229 25.595 25.379 25.3982C26.0352 25.2013 26.6415 24.8664 27.1575 24.4158C27.6734 23.9652 28.0869 23.4094 28.3702 22.7857C28.6535 22.1621 28.8 21.485 28.8 20.8V14.8C28.8 13.696 27.904 12.8 26.8 12.8H23.3936C23.7072 13.2672 23.9136 13.8128 23.9776 14.4H26.8C26.906 14.4 27.0078 14.4422 27.0828 14.5172C27.1578 14.5922 27.2 14.6939 27.2 14.8V20.8C27.2001 21.2338 27.112 21.663 26.9411 22.0617C26.7701 22.4604 26.5199 22.8202 26.2057 23.1192C25.8914 23.4182 25.5197 23.6501 25.113 23.801C24.7063 23.9519 24.2732 24.0185 23.84 23.9968C23.7319 24.5321 23.5689 25.0549 23.3536 25.5568ZM11.6 12.8C10.496 12.8 9.59995 13.696 9.59995 14.8V22.4C9.59995 24.0974 10.2742 25.7253 11.4745 26.9255C12.6747 28.1257 14.3026 28.8 16 28.8C17.6973 28.8 19.3252 28.1257 20.5254 26.9255C21.7257 25.7253 22.4 24.0974 22.4 22.4V14.8C22.4 13.696 21.504 12.8 20.4 12.8H11.6ZM11.2 14.8C11.2 14.6939 11.2421 14.5922 11.3171 14.5172C11.3921 14.4422 11.4939 14.4 11.6 14.4H20.4C20.506 14.4 20.6078 14.4422 20.6828 14.5172C20.7578 14.5922 20.8 14.6939 20.8 14.8V22.4C20.8 23.6731 20.2942 24.894 19.3941 25.7941C18.4939 26.6943 17.273 27.2 16 27.2C14.7269 27.2 13.506 26.6943 12.6058 25.7941C11.7057 24.894 11.2 23.6731 11.2 22.4V14.8Z" fill="black"/>
</svg>
